<mxfile host="app.diagrams.net" modified="2021-09-20T06:06:39.067Z" agent="5.0 (Windows NT 10.0; Win64; x64) AppleWebKit/537.36 (KHTML, like Gecko) Chrome/93.0.4577.82 Safari/537.36" etag="2-WGw_QJf0bnkQE3XhjX" version="15.2.9" type="github">
  <diagram id="C5RBs43oDa-KdzZeNtuy" name="Page-1">
    <mxGraphModel dx="1483" dy="744" grid="1" gridSize="10" guides="1" tooltips="1" connect="1" arrows="1" fold="1" page="1" pageScale="1" pageWidth="827" pageHeight="1169" math="0" shadow="0">
      <root>
        <mxCell id="WIyWlLk6GJQsqaUBKTNV-0" />
        <mxCell id="WIyWlLk6GJQsqaUBKTNV-1" parent="WIyWlLk6GJQsqaUBKTNV-0" />
        <mxCell id="vM5MXBuIlQxciyO8auI7-28" value="" style="edgeStyle=orthogonalEdgeStyle;rounded=0;orthogonalLoop=1;jettySize=auto;html=1;" edge="1" parent="WIyWlLk6GJQsqaUBKTNV-1" source="vM5MXBuIlQxciyO8auI7-11" target="vM5MXBuIlQxciyO8auI7-21">
          <mxGeometry relative="1" as="geometry" />
        </mxCell>
        <mxCell id="vM5MXBuIlQxciyO8auI7-11" value="Begin" style="ellipse;whiteSpace=wrap;html=1;fillColor=#d5e8d4;strokeColor=#82b366;" vertex="1" parent="WIyWlLk6GJQsqaUBKTNV-1">
          <mxGeometry x="186" y="215" width="120" height="50" as="geometry" />
        </mxCell>
        <mxCell id="vM5MXBuIlQxciyO8auI7-35" value="" style="edgeStyle=orthogonalEdgeStyle;rounded=0;orthogonalLoop=1;jettySize=auto;html=1;entryX=0.5;entryY=0;entryDx=0;entryDy=0;exitX=0.5;exitY=1;exitDx=0;exitDy=0;" edge="1" parent="WIyWlLk6GJQsqaUBKTNV-1" source="vM5MXBuIlQxciyO8auI7-16" target="vM5MXBuIlQxciyO8auI7-23">
          <mxGeometry relative="1" as="geometry">
            <mxPoint x="396" y="665" as="sourcePoint" />
          </mxGeometry>
        </mxCell>
        <mxCell id="vM5MXBuIlQxciyO8auI7-36" style="edgeStyle=orthogonalEdgeStyle;rounded=0;orthogonalLoop=1;jettySize=auto;html=1;exitX=0.5;exitY=1;exitDx=0;exitDy=0;entryX=0.5;entryY=0;entryDx=0;entryDy=0;" edge="1" parent="WIyWlLk6GJQsqaUBKTNV-1" source="vM5MXBuIlQxciyO8auI7-16" target="vM5MXBuIlQxciyO8auI7-24">
          <mxGeometry relative="1" as="geometry" />
        </mxCell>
        <mxCell id="vM5MXBuIlQxciyO8auI7-16" value="Building Web Application" style="rounded=1;whiteSpace=wrap;html=1;fillColor=#fad7ac;strokeColor=#b46504;" vertex="1" parent="WIyWlLk6GJQsqaUBKTNV-1">
          <mxGeometry x="251" y="612.5" width="120" height="60" as="geometry" />
        </mxCell>
        <mxCell id="vM5MXBuIlQxciyO8auI7-34" value="" style="edgeStyle=orthogonalEdgeStyle;rounded=0;orthogonalLoop=1;jettySize=auto;html=1;" edge="1" parent="WIyWlLk6GJQsqaUBKTNV-1" source="vM5MXBuIlQxciyO8auI7-17" target="vM5MXBuIlQxciyO8auI7-16">
          <mxGeometry relative="1" as="geometry" />
        </mxCell>
        <mxCell id="vM5MXBuIlQxciyO8auI7-17" value="Save model" style="rounded=1;whiteSpace=wrap;html=1;fillColor=#fff2cc;strokeColor=#d6b656;" vertex="1" parent="WIyWlLk6GJQsqaUBKTNV-1">
          <mxGeometry x="566" y="625" width="100" height="35" as="geometry" />
        </mxCell>
        <mxCell id="vM5MXBuIlQxciyO8auI7-32" value="" style="edgeStyle=orthogonalEdgeStyle;rounded=0;orthogonalLoop=1;jettySize=auto;html=1;" edge="1" parent="WIyWlLk6GJQsqaUBKTNV-1" source="vM5MXBuIlQxciyO8auI7-19" target="vM5MXBuIlQxciyO8auI7-22">
          <mxGeometry relative="1" as="geometry" />
        </mxCell>
        <mxCell id="vM5MXBuIlQxciyO8auI7-19" value="Data visualisation and testing model" style="rounded=1;whiteSpace=wrap;html=1;fillColor=#fff2cc;strokeColor=#d6b656;" vertex="1" parent="WIyWlLk6GJQsqaUBKTNV-1">
          <mxGeometry x="566" y="365" width="100" height="60" as="geometry" />
        </mxCell>
        <mxCell id="vM5MXBuIlQxciyO8auI7-49" value="" style="edgeStyle=orthogonalEdgeStyle;rounded=0;orthogonalLoop=1;jettySize=auto;html=1;entryX=0.5;entryY=0;entryDx=0;entryDy=0;" edge="1" parent="WIyWlLk6GJQsqaUBKTNV-1" source="vM5MXBuIlQxciyO8auI7-21" target="vM5MXBuIlQxciyO8auI7-41">
          <mxGeometry relative="1" as="geometry" />
        </mxCell>
        <mxCell id="vM5MXBuIlQxciyO8auI7-21" value="Get data" style="rounded=1;whiteSpace=wrap;html=1;fillColor=#fff2cc;strokeColor=#d6b656;" vertex="1" parent="WIyWlLk6GJQsqaUBKTNV-1">
          <mxGeometry x="193.5" y="315" width="105" height="30" as="geometry" />
        </mxCell>
        <mxCell id="vM5MXBuIlQxciyO8auI7-33" value="" style="edgeStyle=orthogonalEdgeStyle;rounded=0;orthogonalLoop=1;jettySize=auto;html=1;" edge="1" parent="WIyWlLk6GJQsqaUBKTNV-1" source="vM5MXBuIlQxciyO8auI7-22" target="vM5MXBuIlQxciyO8auI7-17">
          <mxGeometry relative="1" as="geometry" />
        </mxCell>
        <mxCell id="vM5MXBuIlQxciyO8auI7-55" style="edgeStyle=orthogonalEdgeStyle;rounded=0;orthogonalLoop=1;jettySize=auto;html=1;entryX=0.5;entryY=1;entryDx=0;entryDy=0;" edge="1" parent="WIyWlLk6GJQsqaUBKTNV-1" source="vM5MXBuIlQxciyO8auI7-22" target="vM5MXBuIlQxciyO8auI7-41">
          <mxGeometry relative="1" as="geometry" />
        </mxCell>
        <mxCell id="vM5MXBuIlQxciyO8auI7-22" value="Model optimization?" style="rhombus;whiteSpace=wrap;html=1;fillColor=#f8cecc;strokeColor=#b85450;" vertex="1" parent="WIyWlLk6GJQsqaUBKTNV-1">
          <mxGeometry x="566" y="475" width="100" height="100" as="geometry" />
        </mxCell>
        <mxCell id="vM5MXBuIlQxciyO8auI7-38" value="" style="edgeStyle=orthogonalEdgeStyle;rounded=0;orthogonalLoop=1;jettySize=auto;html=1;exitX=0.5;exitY=1;exitDx=0;exitDy=0;" edge="1" parent="WIyWlLk6GJQsqaUBKTNV-1" source="vM5MXBuIlQxciyO8auI7-23" target="vM5MXBuIlQxciyO8auI7-25">
          <mxGeometry relative="1" as="geometry" />
        </mxCell>
        <mxCell id="vM5MXBuIlQxciyO8auI7-23" value="Design Frontend" style="rounded=1;whiteSpace=wrap;html=1;fillColor=#fad7ac;strokeColor=#b46504;" vertex="1" parent="WIyWlLk6GJQsqaUBKTNV-1">
          <mxGeometry x="386" y="745" width="80" height="50" as="geometry" />
        </mxCell>
        <mxCell id="vM5MXBuIlQxciyO8auI7-37" value="" style="edgeStyle=orthogonalEdgeStyle;rounded=0;orthogonalLoop=1;jettySize=auto;html=1;exitX=0.5;exitY=1;exitDx=0;exitDy=0;" edge="1" parent="WIyWlLk6GJQsqaUBKTNV-1" source="vM5MXBuIlQxciyO8auI7-24" target="vM5MXBuIlQxciyO8auI7-25">
          <mxGeometry relative="1" as="geometry" />
        </mxCell>
        <mxCell id="vM5MXBuIlQxciyO8auI7-24" value="Design Backend" style="rounded=1;whiteSpace=wrap;html=1;fillColor=#fad7ac;strokeColor=#b46504;" vertex="1" parent="WIyWlLk6GJQsqaUBKTNV-1">
          <mxGeometry x="136" y="745" width="90" height="50" as="geometry" />
        </mxCell>
        <mxCell id="vM5MXBuIlQxciyO8auI7-39" value="" style="edgeStyle=orthogonalEdgeStyle;rounded=0;orthogonalLoop=1;jettySize=auto;html=1;" edge="1" parent="WIyWlLk6GJQsqaUBKTNV-1" source="vM5MXBuIlQxciyO8auI7-25" target="vM5MXBuIlQxciyO8auI7-26">
          <mxGeometry relative="1" as="geometry" />
        </mxCell>
        <mxCell id="vM5MXBuIlQxciyO8auI7-25" value="Testing app" style="rounded=1;whiteSpace=wrap;html=1;fillColor=#fad7ac;strokeColor=#b46504;" vertex="1" parent="WIyWlLk6GJQsqaUBKTNV-1">
          <mxGeometry x="266" y="905" width="90" height="50" as="geometry" />
        </mxCell>
        <mxCell id="vM5MXBuIlQxciyO8auI7-40" value="" style="edgeStyle=orthogonalEdgeStyle;rounded=0;orthogonalLoop=1;jettySize=auto;html=1;" edge="1" parent="WIyWlLk6GJQsqaUBKTNV-1" source="vM5MXBuIlQxciyO8auI7-26" target="vM5MXBuIlQxciyO8auI7-27">
          <mxGeometry relative="1" as="geometry" />
        </mxCell>
        <mxCell id="vM5MXBuIlQxciyO8auI7-26" value="Deploy the webapp" style="rounded=1;whiteSpace=wrap;html=1;fillColor=#fad7ac;strokeColor=#b46504;" vertex="1" parent="WIyWlLk6GJQsqaUBKTNV-1">
          <mxGeometry x="409" y="910" width="115" height="40" as="geometry" />
        </mxCell>
        <mxCell id="vM5MXBuIlQxciyO8auI7-27" value="End" style="ellipse;whiteSpace=wrap;html=1;fillColor=#d5e8d4;strokeColor=#82b366;" vertex="1" parent="WIyWlLk6GJQsqaUBKTNV-1">
          <mxGeometry x="586" y="910" width="105" height="40" as="geometry" />
        </mxCell>
        <mxCell id="vM5MXBuIlQxciyO8auI7-54" value="" style="edgeStyle=orthogonalEdgeStyle;rounded=0;orthogonalLoop=1;jettySize=auto;html=1;" edge="1" parent="WIyWlLk6GJQsqaUBKTNV-1" source="vM5MXBuIlQxciyO8auI7-41" target="vM5MXBuIlQxciyO8auI7-42">
          <mxGeometry relative="1" as="geometry" />
        </mxCell>
        <mxCell id="vM5MXBuIlQxciyO8auI7-41" value="Data Preprocessing" style="rounded=1;whiteSpace=wrap;html=1;fillColor=#fff2cc;strokeColor=#d6b656;" vertex="1" parent="WIyWlLk6GJQsqaUBKTNV-1">
          <mxGeometry x="193.5" y="375" width="105" height="40" as="geometry" />
        </mxCell>
        <mxCell id="vM5MXBuIlQxciyO8auI7-44" value="" style="edgeStyle=orthogonalEdgeStyle;rounded=0;orthogonalLoop=1;jettySize=auto;html=1;" edge="1" parent="WIyWlLk6GJQsqaUBKTNV-1" source="vM5MXBuIlQxciyO8auI7-42" target="vM5MXBuIlQxciyO8auI7-19">
          <mxGeometry relative="1" as="geometry" />
        </mxCell>
        <mxCell id="vM5MXBuIlQxciyO8auI7-42" value="Model training and Validation" style="rounded=1;whiteSpace=wrap;html=1;fillColor=#fff2cc;strokeColor=#d6b656;" vertex="1" parent="WIyWlLk6GJQsqaUBKTNV-1">
          <mxGeometry x="386" y="365" width="105" height="60" as="geometry" />
        </mxCell>
      </root>
    </mxGraphModel>
  </diagram>
</mxfile>
